<?xml version="1.0" encoding="UTF-8"?>
<svg xmlns="http://www.w3.org/2000/svg" width="512" height="512" viewBox="0 0 512 512">
  <path fill="rgb(255,255,255)" stroke="rgb(0,0,0)" stroke-width="5" stroke-linecap="round"
    stroke-linejoin="miter" stroke-miterlimit="4"
    d="M 47.34 91.8 L 113.01 420.2 L 174.23 420.2 L 238.00 91.8 L 182.57 91.8 L 144.31 307.33 L 104.54 91.8 z" />
  <path fill="rgb(255,255,255)" stroke="rgb(0,0,0)" stroke-width="5" stroke-linecap="round"
    stroke-linejoin="miter" stroke-miterlimit="4" fill-rule="evenodd"
    d="M 267.28 91.8 L 267.28 420.2 L 323.71 420.2 L 323.71 279.3 C 323.71 279.3 352.73 279.08 357.80 279.3 C 374.90 279.97 398.19 293.28 398.19 321.34 C 398.19 349.4 398.19 420.2 398.19 420.2 L 455.39 420.2 L 455.39 317.93 C 454.54 285.17 441.28 267.93 430.01 254.3 C 450.56 234.22 460.68 211.59 460.30 183.08 C 459.64 131.85 415.94 91.57 369.79 91.8 z M 324.09 147.86 L 324.09 221.72 C 324.09 221.72 351.08 222.19 368.41 221.72 C 385.74 221.25 402.13 205.34 402.51 185.98 C 402.89 164.62 383.09 148.05 368.41 147.86 C 353.73 147.67 324.09 147.86 324.09 147.86 z" />
</svg>